<svg width="21" height="20" viewBox="0 0 21 20" fill="none" xmlns="http://www.w3.org/2000/svg">
<g id="android 1">
<g id="Group">
<path id="Vector" d="M2.86452 6.32294C2.20557 6.32294 1.5918 6.84285 1.5918 7.48335V12.4518C1.5918 13.0926 2.20557 13.6122 2.86452 13.6122C3.52316 13.6122 4.13725 13.0926 4.13725 12.4518V7.48366C4.13725 6.84285 3.52316 6.32294 2.86452 6.32294Z" fill="#62DF2E"/>
<path id="Vector_2" d="M13.2401 1.67272L13.4621 1.3469L13.6846 1.0249L14.18 0.301037C14.242 0.21131 14.2162 0.0916734 14.1249 0.0328097C14.0346 -0.0273267 13.9095 -0.0021903 13.8503 0.0869006L13.094 1.18876L12.8665 1.52063C12.1477 1.2489 11.3469 1.09745 10.5008 1.09745C9.65669 1.09745 8.85423 1.24922 8.13546 1.52063L7.90923 1.18908L7.68555 0.863583L7.15419 0.087537C7.09278 -0.00187211 6.96932 -0.0254176 6.87769 0.0334461C6.787 0.0926279 6.76187 0.212264 6.82232 0.301673L7.31741 1.02586L7.53982 1.34817L7.76319 1.67304C6.07555 2.43826 4.93359 3.95472 4.93359 5.54563H16.0684C16.0684 3.95472 14.9267 2.43826 13.2401 1.67272ZM8.11478 4.00086C7.78419 4.00086 7.51787 3.7409 7.51787 3.41986C7.51787 3.09881 7.78419 2.84013 8.11478 2.84013C8.44441 2.84013 8.71137 3.09881 8.71137 3.41986C8.71137 3.7409 8.44473 4.00086 8.11478 4.00086ZM12.8875 4.00086C12.5572 4.00086 12.2903 3.7409 12.2903 3.41986C12.2903 3.09881 12.5572 2.84013 12.8875 2.84013C13.2171 2.84013 13.4841 3.09881 13.4841 3.41986C13.4841 3.7409 13.2171 4.00086 12.8875 4.00086Z" fill="#62DF2E"/>
</g>
<path id="Vector_3" d="M2.92116 8.91678C2.42512 8.91678 1.90998 8.44874 1.5918 7.70642V12.4521C1.5918 13.0929 2.20557 13.6125 2.86452 13.6125C3.52316 13.6125 4.13725 13.0929 4.13725 12.4521V7.95397C3.81907 8.55024 3.35898 8.91678 2.92116 8.91678Z" fill="#62DF2E"/>
<path id="Vector_4" d="M18.136 6.32294C17.4771 6.32294 16.8633 6.84285 16.8633 7.48335V12.4518C16.8633 13.0926 17.4771 13.6122 18.136 13.6122C18.7946 13.6122 19.4087 13.0926 19.4087 12.4518V7.48366C19.4087 6.84285 18.7946 6.32294 18.136 6.32294Z" fill="#62DF2E"/>
<g id="Group_2">
<path id="Vector_5" d="M18.1946 8.91678C17.6986 8.91678 17.1834 8.44874 16.8652 7.70642V12.4521C16.8652 13.0929 17.479 13.6125 18.138 13.6125C18.7966 13.6125 19.4107 13.0929 19.4107 12.4521V7.95397C19.0925 8.55024 18.6324 8.91678 18.1946 8.91678Z" fill="#62DF2E"/>
<path id="Vector_6" d="M13.4841 3.41953C13.4841 3.74057 13.2171 4.00053 12.8875 4.00053C12.5572 4.00053 12.2903 3.74057 12.2903 3.41953C12.2903 3.24548 12.3701 3.0918 12.4946 2.98553C11.8655 2.88053 11.1964 2.82294 10.5008 2.82294C9.80528 2.82294 9.13646 2.88053 8.5071 2.98553C8.63182 3.09148 8.71169 3.24548 8.71169 3.41953C8.71169 3.74057 8.44473 4.00053 8.11509 4.00053C7.7845 4.00053 7.51819 3.74057 7.51819 3.41953C7.51819 3.33744 7.53632 3.25948 7.56782 3.18853C6.61391 3.43926 5.79428 3.80516 5.17573 4.25476C5.01982 4.66426 4.93359 5.22744 4.93359 5.54562H16.0684C16.0684 5.22744 15.9821 4.66457 15.8266 4.25539C15.2083 3.80516 14.3884 3.43862 13.4351 3.18789C13.4663 3.25885 13.4841 3.33776 13.4841 3.41953Z" fill="#62DF2E"/>
</g>
<path id="Vector_7" d="M10.5009 6.11121C8.35728 6.11121 6.61198 6.11121 5.0918 6.11121V14.8391C5.0918 15.5153 5.4978 16.0457 6.19366 16.0457H7.10207C7.07089 16.0457 7.00089 16.2751 7.00089 16.3877V18.8396C7.00089 19.4804 7.6153 20 8.27362 20C8.93225 20 9.54634 19.4804 9.54634 18.8396V16.3877C9.54634 16.2751 9.42352 16.0457 9.3933 16.0457H11.6091C11.5789 16.0457 11.4554 16.2751 11.4554 16.3877V18.8396C11.4554 19.4804 12.0686 20 12.7269 20C13.3868 20 14.0009 19.4804 14.0009 18.8396V16.3877C14.0009 16.2751 13.9312 16.0457 13.9 16.0457H14.8097C15.5056 16.0457 15.91 15.5153 15.91 14.8391V6.11121C14.0009 6.28284 12.6445 6.11121 10.5009 6.11121Z" fill="#62DF2E"/>
</g>
</svg>
