<svg width="12" height="14" viewBox="0 0 12 14" fill="none" xmlns="http://www.w3.org/2000/svg">
<g id="Group">
<path id="Vector" d="M3.66669 3.35425C3.42752 3.35425 3.22919 3.15591 3.22919 2.91675V1.16675C3.22919 0.927581 3.42752 0.729248 3.66669 0.729248C3.90585 0.729248 4.10419 0.927581 4.10419 1.16675V2.91675C4.10419 3.15591 3.90585 3.35425 3.66669 3.35425Z" fill="url(#paint0_linear_500_23087)"/>
<path id="Vector_2" d="M8.33331 3.35425C8.09415 3.35425 7.89581 3.15591 7.89581 2.91675V1.16675C7.89581 0.927581 8.09415 0.729248 8.33331 0.729248C8.57248 0.729248 8.77081 0.927581 8.77081 1.16675V2.91675C8.77081 3.15591 8.57248 3.35425 8.33331 3.35425Z" fill="url(#paint1_linear_500_23087)"/>
<path id="Vector_3" d="M3.95833 8.45859C3.8825 8.45859 3.80667 8.44109 3.73667 8.41193C3.66083 8.38276 3.6025 8.34193 3.54417 8.28943C3.43917 8.17859 3.375 8.03276 3.375 7.87526C3.375 7.79943 3.3925 7.72359 3.42167 7.65359C3.45083 7.58359 3.49167 7.51943 3.54417 7.46109C3.6025 7.40859 3.66083 7.36776 3.73667 7.33859C3.94667 7.25109 4.20917 7.29776 4.3725 7.46109C4.4775 7.57193 4.54167 7.72359 4.54167 7.87526C4.54167 7.91026 4.53583 7.95109 4.53 7.99193C4.52417 8.02693 4.5125 8.06193 4.495 8.09693C4.48333 8.13193 4.46583 8.16692 4.4425 8.20192C4.425 8.23109 4.39583 8.26026 4.3725 8.28943C4.26167 8.39443 4.11 8.45859 3.95833 8.45859Z" fill="url(#paint2_linear_500_23087)"/>
<path id="Vector_4" d="M6.00002 8.45825C5.92419 8.45825 5.84835 8.44075 5.77835 8.41159C5.70252 8.38242 5.64419 8.34159 5.58585 8.28909C5.48085 8.17825 5.41669 8.03242 5.41669 7.87492C5.41669 7.79909 5.43419 7.72325 5.46335 7.65325C5.49252 7.58325 5.53335 7.51909 5.58585 7.46075C5.64419 7.40825 5.70252 7.36742 5.77835 7.33825C5.98835 7.24492 6.25085 7.29742 6.41419 7.46075C6.51919 7.57159 6.58335 7.72325 6.58335 7.87492C6.58335 7.90992 6.57752 7.95075 6.57169 7.99159C6.56585 8.02659 6.55419 8.06159 6.53669 8.09659C6.52502 8.13159 6.50752 8.16659 6.48419 8.20159C6.46669 8.23076 6.43752 8.25992 6.41419 8.28909C6.30335 8.39409 6.15169 8.45825 6.00002 8.45825Z" fill="url(#paint3_linear_500_23087)"/>
<path id="Vector_5" d="M8.04165 8.45825C7.96581 8.45825 7.88998 8.44075 7.81998 8.41159C7.74415 8.38242 7.68581 8.34159 7.62748 8.28909C7.60415 8.25992 7.58081 8.23076 7.55748 8.20159C7.53415 8.16659 7.51665 8.13159 7.50498 8.09659C7.48748 8.06159 7.47581 8.02659 7.46998 7.99159C7.46415 7.95075 7.45831 7.90992 7.45831 7.87492C7.45831 7.72325 7.52248 7.57159 7.62748 7.46075C7.68581 7.40825 7.74415 7.36742 7.81998 7.33825C8.03581 7.24492 8.29248 7.29742 8.45581 7.46075C8.56081 7.57159 8.62498 7.72325 8.62498 7.87492C8.62498 7.90992 8.61915 7.95075 8.61331 7.99159C8.60748 8.02659 8.59581 8.06159 8.57831 8.09659C8.56665 8.13159 8.54915 8.16659 8.52581 8.20159C8.50831 8.23076 8.47915 8.25992 8.45581 8.28909C8.34498 8.39409 8.19331 8.45825 8.04165 8.45825Z" fill="url(#paint4_linear_500_23087)"/>
<path id="Vector_6" d="M3.95833 10.5001C3.8825 10.5001 3.80667 10.4827 3.73667 10.4535C3.66667 10.4244 3.6025 10.3835 3.54417 10.331C3.43917 10.2201 3.375 10.0685 3.375 9.9168C3.375 9.84097 3.3925 9.76514 3.42167 9.69514C3.45083 9.6193 3.49167 9.5552 3.54417 9.5027C3.76 9.28686 4.15667 9.28686 4.3725 9.5027C4.4775 9.61353 4.54167 9.76514 4.54167 9.9168C4.54167 10.0685 4.4775 10.2201 4.3725 10.331C4.26167 10.436 4.11 10.5001 3.95833 10.5001Z" fill="url(#paint5_linear_500_23087)"/>
<path id="Vector_7" d="M6.00002 10.5001C5.84835 10.5001 5.69669 10.436 5.58585 10.331C5.48085 10.2201 5.41669 10.0685 5.41669 9.9168C5.41669 9.84097 5.43419 9.76514 5.46335 9.69514C5.49252 9.6193 5.53335 9.5552 5.58585 9.5027C5.80169 9.28686 6.19835 9.28686 6.41419 9.5027C6.46669 9.5552 6.50752 9.6193 6.53669 9.69514C6.56585 9.76514 6.58335 9.84097 6.58335 9.9168C6.58335 10.0685 6.51919 10.2201 6.41419 10.331C6.30335 10.436 6.15169 10.5001 6.00002 10.5001Z" fill="url(#paint6_linear_500_23087)"/>
<path id="Vector_8" d="M8.04165 10.4999C7.88998 10.4999 7.73831 10.4358 7.62748 10.3308C7.57498 10.2783 7.53415 10.2141 7.50498 10.1383C7.47581 10.0683 7.45831 9.99244 7.45831 9.91661C7.45831 9.84078 7.47581 9.76494 7.50498 9.69494C7.53415 9.61911 7.57498 9.55494 7.62748 9.50244C7.76165 9.36828 7.96581 9.30411 8.15248 9.34494C8.19331 9.35078 8.22831 9.36244 8.26331 9.37994C8.29831 9.39161 8.33331 9.40911 8.36831 9.43244C8.39748 9.44994 8.42665 9.47911 8.45581 9.50244C8.56081 9.61328 8.62498 9.76494 8.62498 9.91661C8.62498 10.0683 8.56081 10.2199 8.45581 10.3308C8.34498 10.4358 8.19331 10.4999 8.04165 10.4999Z" fill="url(#paint7_linear_500_23087)"/>
<path id="Vector_9" d="M10.9584 5.73999H1.04169C0.80252 5.73999 0.604187 5.54166 0.604187 5.30249C0.604187 5.06332 0.80252 4.86499 1.04169 4.86499H10.9584C11.1975 4.86499 11.3959 5.06332 11.3959 5.30249C11.3959 5.54166 11.1975 5.73999 10.9584 5.73999Z" fill="url(#paint8_linear_500_23087)"/>
<path id="Vector_10" d="M8.33333 13.2709H3.66667C1.5375 13.2709 0.3125 12.0459 0.3125 9.91675V4.95841C0.3125 2.82925 1.5375 1.60425 3.66667 1.60425H8.33333C10.4625 1.60425 11.6875 2.82925 11.6875 4.95841V9.91675C11.6875 12.0459 10.4625 13.2709 8.33333 13.2709ZM3.66667 2.47925C1.99833 2.47925 1.1875 3.29008 1.1875 4.95841V9.91675C1.1875 11.5851 1.99833 12.3959 3.66667 12.3959H8.33333C10.0017 12.3959 10.8125 11.5851 10.8125 9.91675V4.95841C10.8125 3.29008 10.0017 2.47925 8.33333 2.47925H3.66667Z" fill="url(#paint9_linear_500_23087)"/>
</g>
<defs>
<linearGradient id="paint0_linear_500_23087" x1="3.22919" y1="0.944021" x2="4.2113" y2="0.988486" gradientUnits="userSpaceOnUse">
<stop stop-color="#36E2FA"/>
<stop offset="1" stop-color="#EBFFBF"/>
</linearGradient>
<linearGradient id="paint1_linear_500_23087" x1="7.89581" y1="0.944021" x2="8.87792" y2="0.988486" gradientUnits="userSpaceOnUse">
<stop stop-color="#36E2FA"/>
<stop offset="1" stop-color="#EBFFBF"/>
</linearGradient>
<linearGradient id="paint2_linear_500_23087" x1="3.375" y1="7.39036" x2="4.66327" y2="7.56582" gradientUnits="userSpaceOnUse">
<stop stop-color="#36E2FA"/>
<stop offset="1" stop-color="#EBFFBF"/>
</linearGradient>
<linearGradient id="paint3_linear_500_23087" x1="5.41669" y1="7.38764" x2="6.70506" y2="7.56273" gradientUnits="userSpaceOnUse">
<stop stop-color="#36E2FA"/>
<stop offset="1" stop-color="#EBFFBF"/>
</linearGradient>
<linearGradient id="paint4_linear_500_23087" x1="7.45831" y1="7.38764" x2="8.74668" y2="7.56273" gradientUnits="userSpaceOnUse">
<stop stop-color="#36E2FA"/>
<stop offset="1" stop-color="#EBFFBF"/>
</linearGradient>
<linearGradient id="paint5_linear_500_23087" x1="3.375" y1="9.43567" x2="4.6631" y2="9.61174" gradientUnits="userSpaceOnUse">
<stop stop-color="#36E2FA"/>
<stop offset="1" stop-color="#EBFFBF"/>
</linearGradient>
<linearGradient id="paint6_linear_500_23087" x1="5.41669" y1="9.43567" x2="6.70479" y2="9.61174" gradientUnits="userSpaceOnUse">
<stop stop-color="#36E2FA"/>
<stop offset="1" stop-color="#EBFFBF"/>
</linearGradient>
<linearGradient id="paint7_linear_500_23087" x1="7.45831" y1="9.42826" x2="8.74673" y2="9.60318" gradientUnits="userSpaceOnUse">
<stop stop-color="#36E2FA"/>
<stop offset="1" stop-color="#EBFFBF"/>
</linearGradient>
<linearGradient id="paint8_linear_500_23087" x1="0.604187" y1="4.93658" x2="3.79304" y2="10.2785" gradientUnits="userSpaceOnUse">
<stop stop-color="#36E2FA"/>
<stop offset="1" stop-color="#EBFFBF"/>
</linearGradient>
<linearGradient id="paint9_linear_500_23087" x1="0.3125" y1="2.55879" x2="12.8856" y2="4.22385" gradientUnits="userSpaceOnUse">
<stop stop-color="#36E2FA"/>
<stop offset="1" stop-color="#EBFFBF"/>
</linearGradient>
</defs>
</svg>
