<svg xmlns="http://www.w3.org/2000/svg" width="14" height="14"
                                                    viewBox="0 0 14 14" fill="none">
                                                    <path
                                                        d="M9.01001 2.44849H2.50172C1.89103 2.44849 1.39502 2.94449 1.39502 3.55518V12.8933C1.39502 13.504 1.89103 14 2.50172 14H9.01001C9.6207 14 10.1167 13.504 10.1167 12.8933V3.55518C10.1138 2.94449 9.61784 2.44849 9.01001 2.44849ZM9.33973 12.8904C9.33973 13.0739 9.19064 13.223 9.00714 13.223H2.49885C2.31536 13.223 2.16627 13.0739 2.16627 12.8904V3.55518C2.16627 3.37169 2.31536 3.2226 2.49885 3.2226H9.00714C9.19064 3.2226 9.33973 3.37169 9.33973 3.55518V12.8904Z"
                                                        fill="url(#paint0_linear_543_12355)" />
                                                    <path
                                                        d="M11.4988 0H4.99049C4.3798 0 3.88379 0.496006 3.88379 1.1067C3.88379 1.32173 4.05581 1.49375 4.27085 1.49375C4.48588 1.49375 4.6579 1.32173 4.6579 1.1067C4.6579 0.923203 4.80699 0.774114 4.99049 0.774114H11.4988C11.6823 0.774114 11.8314 0.923203 11.8314 1.1067V10.4448C11.8314 10.6283 11.6823 10.7774 11.4988 10.7774C11.2837 10.7774 11.1117 10.9494 11.1117 11.1644C11.1117 11.3795 11.2837 11.5515 11.4988 11.5515C12.1095 11.5515 12.6055 11.0555 12.6055 10.4448V1.1067C12.6055 0.496006 12.1095 0 11.4988 0Z"
                                                        fill="url(#paint1_linear_543_12355)" />
                                                    <defs>
                                                        <linearGradient id="paint0_linear_543_12355" x1="1.39502"
                                                            y1="3.39361" x2="11.1023" y2="4.38911"
                                                            gradientUnits="userSpaceOnUse">
                                                            <stop stop-color="#36E2FA" />
                                                            <stop offset="1" stop-color="#EBFFBF" />
                                                        </linearGradient>
                                                        <linearGradient id="paint1_linear_543_12355" x1="3.88379"
                                                            y1="0.945124" x2="13.5911" y2="1.94063"
                                                            gradientUnits="userSpaceOnUse">
                                                            <stop stop-color="#36E2FA" />
                                                            <stop offset="1" stop-color="#EBFFBF" />
                                                        </linearGradient>
                                                    </defs>
                                                </svg>