<svg width="12" height="12" viewBox="0 0 12 12" fill="none" xmlns="http://www.w3.org/2000/svg">
<g id="layer1">
<path id="path76735" d="M1.84089 3.03857C1.78333 3.03863 1.72634 3.05005 1.6732 3.07217C1.62005 3.09428 1.57179 3.12667 1.53119 3.16747C1.49058 3.20827 1.45844 3.25669 1.43658 3.30994C1.41472 3.36319 1.40358 3.42023 1.40381 3.4778C1.40393 3.59368 1.45001 3.70479 1.53195 3.78673C1.6139 3.86867 1.72501 3.91475 1.84089 3.91487H9.43685C9.9109 3.91487 10.2356 4.23467 10.2356 4.59092V5.35526C10.2354 5.413 10.2466 5.47022 10.2686 5.52361C10.2906 5.577 10.3229 5.62551 10.3638 5.66634C10.4046 5.70717 10.4531 5.73952 10.5065 5.76151C10.5599 5.7835 10.6171 5.79471 10.6749 5.79448C10.7324 5.79442 10.7894 5.78301 10.8425 5.76089C10.8957 5.73877 10.9439 5.70638 10.9845 5.66557C11.0251 5.62477 11.0573 5.57635 11.0792 5.5231C11.101 5.46985 11.1121 5.41282 11.1119 5.35526V4.59092C11.1119 3.71302 10.3337 3.03857 9.43685 3.03857H1.84089Z" fill="url(#paint0_linear_497_20778)"/>
<path id="path76738" d="M9.44747 4.91821C8.80765 4.91821 8.28052 5.4475 8.28052 6.08732V6.96361C8.28052 7.60342 8.80765 8.13272 9.44747 8.13273H10.6639C11.3038 8.13273 11.8331 7.60342 11.8331 6.96361V6.08732C11.8331 5.4475 11.3038 4.91821 10.6639 4.91821H9.44747ZM9.44747 5.7945H10.6639C10.8309 5.7945 10.9568 5.92038 10.9568 6.08732V6.96361C10.9568 7.13054 10.8309 7.25643 10.6639 7.25643H9.44747C9.28053 7.25643 9.15466 7.13054 9.15466 6.96361V6.08732C9.15466 5.92038 9.28053 5.7945 9.44747 5.7945Z" fill="url(#paint1_linear_497_20778)"/>
<path id="path76723" d="M5.69708 8.01855C5.5812 8.01867 5.47009 8.06475 5.38815 8.14669C5.30621 8.22864 5.26013 8.33974 5.26001 8.45562V10.7508C5.26013 10.8667 5.30621 10.9778 5.38815 11.0597C5.47009 11.1416 5.5812 11.1877 5.69708 11.1878C5.81296 11.1877 5.92407 11.1416 6.00601 11.0597C6.08795 10.9778 6.13403 10.8667 6.13415 10.7508V8.45562C6.13403 8.33974 6.08795 8.22864 6.00601 8.14669C5.92407 8.06475 5.81296 8.01867 5.69708 8.01855Z" fill="url(#paint2_linear_497_20778)"/>
<path id="path76726" d="M5.69704 8.01855C5.6394 8.0186 5.58234 8.03004 5.52913 8.05221C5.47592 8.07438 5.42763 8.10684 5.387 8.14774L4.23297 9.30823C4.15116 9.39025 4.10522 9.50136 4.10522 9.6172C4.10522 9.73303 4.15116 9.84414 4.23297 9.92616C4.27362 9.96699 4.32194 9.99939 4.37515 10.0215C4.42835 10.0436 4.48539 10.055 4.54301 10.055C4.60062 10.055 4.65767 10.0436 4.71088 10.0215C4.76408 9.99939 4.8124 9.96699 4.85305 9.92616L6.00708 8.76566C6.04777 8.72487 6.07999 8.67643 6.10191 8.62315C6.12383 8.56987 6.13501 8.51278 6.1348 8.45516C6.1346 8.39755 6.12301 8.34054 6.10072 8.28741C6.07842 8.23428 6.04585 8.18609 6.00488 8.14558C5.92301 8.06431 5.81241 8.01865 5.69704 8.01855Z" fill="url(#paint3_linear_497_20778)"/>
<path id="path76729" d="M5.69925 8.01856C5.64176 8.01832 5.58478 8.02942 5.53158 8.05122C5.47838 8.07301 5.43001 8.10508 5.38921 8.14559C5.34824 8.18609 5.31566 8.23429 5.29337 8.28741C5.27107 8.34054 5.25948 8.39755 5.25928 8.45517C5.25908 8.51278 5.27025 8.56987 5.29217 8.62315C5.31409 8.67644 5.34631 8.72487 5.387 8.76567L6.54104 9.92616C6.58169 9.96699 6.63001 9.99939 6.68321 10.0215C6.73642 10.0436 6.79347 10.055 6.85108 10.055C6.9087 10.055 6.96575 10.0436 7.01895 10.0215C7.07216 9.99939 7.12047 9.96699 7.16112 9.92616C7.24322 9.84444 7.28956 9.73349 7.28998 9.61765C7.29039 9.50181 7.24484 9.39054 7.16333 9.30824L6.00714 8.14774C5.92562 8.06567 5.81492 8.01923 5.69925 8.01856Z" fill="url(#paint4_linear_497_20778)"/>
<path id="path76732" d="M0.602849 1.9253C0.486966 1.92541 0.375863 1.97149 0.29392 2.05343C0.211977 2.13537 0.165887 2.24647 0.165771 2.36236V8.48994C0.165771 9.36785 0.944024 10.0401 1.84086 10.0401H3.08316C3.19905 10.04 3.31015 9.99393 3.39209 9.91199C3.47403 9.83005 3.52012 9.71895 3.52023 9.60307C3.52012 9.48719 3.47403 9.37609 3.39209 9.29415C3.31015 9.21221 3.19905 9.16612 3.08316 9.16601H1.84086C1.36681 9.16601 1.04207 8.84622 1.04207 8.48994V2.36236C1.04201 2.3048 1.0306 2.24781 1.00848 2.19467C0.986361 2.14153 0.953977 2.09327 0.913175 2.05267C0.872372 2.01207 0.823954 1.97991 0.770703 1.95805C0.717452 1.9362 0.660411 1.92507 0.602849 1.9253ZM10.6748 7.25624C10.6171 7.25601 10.5599 7.26722 10.5065 7.28921C10.4531 7.3112 10.4046 7.34354 10.3637 7.38437C10.3229 7.42521 10.2906 7.47371 10.2686 7.52711C10.2466 7.5805 10.2354 7.63772 10.2356 7.69546V8.48994C10.2356 8.84622 9.91087 9.16601 9.43682 9.16601H8.3323C8.21642 9.16612 8.10532 9.2122 8.02337 9.29414C7.94143 9.37608 7.89535 9.48718 7.89523 9.60307C7.89535 9.71895 7.94143 9.83006 8.02337 9.912C8.10532 9.99394 8.21642 10.04 8.3323 10.0401H9.43682C10.3336 10.0401 11.1119 9.36785 11.1119 8.48994V7.69546C11.1121 7.6379 11.101 7.58086 11.0791 7.52761C11.0573 7.47436 11.0251 7.42594 10.9845 7.38514C10.9439 7.34434 10.8957 7.31195 10.8425 7.28983C10.7894 7.26771 10.7324 7.2563 10.6748 7.25624Z" fill="url(#paint5_linear_497_20778)"/>
<path id="path76741" d="M1.84086 0.812256C0.944653 0.812245 0.165771 1.48466 0.165771 2.36245C0.165771 3.24024 0.944653 3.9148 1.84086 3.9148C1.95674 3.91469 2.06784 3.8686 2.14978 3.78666C2.23172 3.70472 2.27781 3.59361 2.27792 3.47773C2.27815 3.42017 2.26701 3.36313 2.24516 3.30988C2.2233 3.25663 2.19115 3.20822 2.15055 3.16742C2.10995 3.12661 2.06169 3.09422 2.00855 3.0721C1.95541 3.04998 1.89842 3.03857 1.84086 3.03851C1.37029 3.03851 1.04207 2.71483 1.04207 2.36245C1.04207 2.01007 1.37029 1.68638 1.84086 1.68639H8.45718C8.76177 1.68639 8.99975 1.92436 8.99975 2.22896V3.47773C8.99986 3.59361 9.04596 3.70472 9.1279 3.78666C9.20984 3.8686 9.32094 3.91469 9.43682 3.9148C9.49438 3.91503 9.55142 3.90389 9.60467 3.88204C9.65792 3.86018 9.70633 3.82803 9.74714 3.78743C9.78794 3.74683 9.82033 3.69857 9.84245 3.64543C9.86457 3.59228 9.87598 3.5353 9.87604 3.47773V2.22896C9.87604 1.45148 9.23465 0.812256 8.45718 0.812256H1.84086Z" fill="url(#paint6_linear_497_20778)"/>
</g>
<defs>
<linearGradient id="paint0_linear_497_20778" x1="1.40381" y1="3.26406" x2="10.2886" y2="7.51516" gradientUnits="userSpaceOnUse">
<stop stop-color="#36E2FA"/>
<stop offset="1" stop-color="#EBFFBF"/>
</linearGradient>
<linearGradient id="paint1_linear_497_20778" x1="8.28052" y1="5.18122" x2="12.1881" y2="5.76777" gradientUnits="userSpaceOnUse">
<stop stop-color="#36E2FA"/>
<stop offset="1" stop-color="#EBFFBF"/>
</linearGradient>
<linearGradient id="paint2_linear_497_20778" x1="5.26001" y1="8.27786" x2="6.24179" y2="8.31464" gradientUnits="userSpaceOnUse">
<stop stop-color="#36E2FA"/>
<stop offset="1" stop-color="#EBFFBF"/>
</linearGradient>
<linearGradient id="paint3_linear_497_20778" x1="4.10522" y1="8.18517" x2="6.34684" y2="8.48862" gradientUnits="userSpaceOnUse">
<stop stop-color="#36E2FA"/>
<stop offset="1" stop-color="#EBFFBF"/>
</linearGradient>
<linearGradient id="paint4_linear_497_20778" x1="5.25928" y1="8.18517" x2="7.50209" y2="8.48895" gradientUnits="userSpaceOnUse">
<stop stop-color="#36E2FA"/>
<stop offset="1" stop-color="#EBFFBF"/>
</linearGradient>
<linearGradient id="paint5_linear_497_20778" x1="0.165771" y1="2.58924" x2="12.0772" y2="4.77159" gradientUnits="userSpaceOnUse">
<stop stop-color="#36E2FA"/>
<stop offset="1" stop-color="#EBFFBF"/>
</linearGradient>
<linearGradient id="paint6_linear_497_20778" x1="0.165771" y1="1.0661" x2="9.41549" y2="4.99819" gradientUnits="userSpaceOnUse">
<stop stop-color="#36E2FA"/>
<stop offset="1" stop-color="#EBFFBF"/>
</linearGradient>
</defs>
</svg>
