<svg width="38" height="19" viewBox="0 0 38 19" fill="none" xmlns="http://www.w3.org/2000/svg">
<g id="Frame 18">
<path id="Vector" d="M25.8289 5.4314C25.8193 5.4314 25.8077 5.43326 25.7981 5.43326C25.6119 5.43979 25.4374 5.50039 25.2754 5.616C25.1027 5.73907 24.9899 5.88917 24.9339 6.06539C24.9339 6.06539 24.1412 8.61626 24.1392 8.61906C24.0987 8.78035 24.1228 8.91741 24.2116 9.02649C24.2685 9.09828 24.3466 9.14769 24.4421 9.1766C24.497 9.19338 24.5597 9.2027 24.6282 9.2055C24.6407 9.2055 30.9984 9.20736 30.9984 9.20736L30.5991 10.4884H23.5548L23.1738 11.7172H30.2172H30.9145C30.9289 11.7172 30.9443 11.7154 30.9588 11.7154C31.1401 11.707 31.3118 11.6492 31.4729 11.5373C31.6474 11.4179 31.7622 11.2706 31.8181 11.0935C31.8181 11.0935 32.6013 8.57244 32.6042 8.56219C32.6456 8.40276 32.6215 8.26663 32.5318 8.15569C32.4354 8.03635 32.2888 7.97668 32.0911 7.97668H25.745L26.1569 6.66022H33.1983L33.5811 5.43326L25.8309 5.4314H25.8289Z" fill="white"/>
<path id="Vector_2" d="M2.02238 11.7161H0.617188L2.57211 5.43872H3.97827L2.02238 11.7161Z" fill="white"/>
<path id="Vector_3" d="M14.2602 5.43872L8.38965 9.84681L6.3431 6.83257L5.39602 5.43872H5.37094L4.9244 6.86986L3.41602 11.7161H4.82121L5.8792 8.31871L8.12153 11.7245L11.8317 8.71029L10.9011 11.7161H12.3072L13.6796 7.30992L14.2621 5.43872H14.2602Z" fill="white"/>
<path id="Vector_4" d="M23.7559 5.61129C23.6594 5.49102 23.509 5.43042 23.3045 5.43042H15.5755L15.1926 6.66017L22.2234 6.65831L21.8145 7.97291L14.7866 7.9757L13.6167 11.7153H15.0238L15.807 9.20079H22.1298C22.3266 9.20079 22.5127 9.14112 22.6883 9.02179C22.8619 8.90245 22.9766 8.7542 23.0316 8.57799L23.8147 6.06348C23.8726 5.88074 23.8523 5.73063 23.7559 5.61036V5.61129Z" fill="white"/>
<path id="Vector_5" d="M36.2294 5.45728L38.0001 8.58993L34.2773 11.7207L36.2294 5.45728Z" fill="#088C45"/>
<path id="Vector_6" d="M34.9881 5.45728L36.7579 8.58993L33.0322 11.7207L34.9881 5.45728Z" fill="#F37A21"/>
<g id="Group">
<path id="Vector_7" d="M0.000964465 13.9118L0.36456 12.7463H0.578666L0.214106 13.9118H0H0.000964465Z" fill="white"/>
<path id="Vector_8" d="M2.24151 13.3366C2.24151 13.3282 2.24536 13.3021 2.25308 13.262C2.25887 13.2275 2.26272 13.2004 2.26658 13.1771C2.25405 13.2042 2.23668 13.2312 2.21932 13.2573C2.20004 13.2844 2.18075 13.3105 2.15664 13.3384L1.62041 13.9584L1.47477 13.3254C1.46995 13.2993 1.46417 13.2741 1.46127 13.2489C1.45934 13.2247 1.45645 13.2004 1.45645 13.1762C1.44873 13.2014 1.43813 13.2265 1.42559 13.2536C1.41305 13.2797 1.39858 13.3077 1.38219 13.3375L1.06199 13.9109H0.866211L1.55579 12.696L1.71203 13.4317C1.71492 13.4428 1.71685 13.4634 1.72167 13.4895C1.72553 13.5165 1.73035 13.5501 1.73517 13.5892C1.75736 13.5557 1.79111 13.5128 1.83451 13.4624C1.84512 13.4475 1.85477 13.4382 1.86055 13.4307L2.46815 12.696L2.4045 13.9109H2.20775L2.24247 13.3356L2.24151 13.3366Z" fill="white"/>
<path id="Vector_9" d="M4.36796 13.3366C4.36796 13.3282 4.37278 13.3021 4.37953 13.262C4.38532 13.2275 4.38918 13.2004 4.39304 13.1771C4.37953 13.2042 4.3641 13.2312 4.34578 13.2573C4.32745 13.2844 4.3072 13.3105 4.28309 13.3384L3.74686 13.9584L3.60123 13.3254C3.59544 13.2993 3.59062 13.2741 3.58773 13.2489C3.58483 13.2247 3.5829 13.2004 3.5829 13.1762C3.57422 13.2014 3.56458 13.2265 3.55204 13.2536C3.54047 13.2797 3.52504 13.3077 3.50768 13.3375L3.18845 13.9109H2.9917L3.68128 12.696L3.83848 13.4317C3.84137 13.4428 3.84427 13.4634 3.84716 13.4895C3.85198 13.5165 3.85584 13.5501 3.86066 13.5892C3.88284 13.5557 3.91564 13.5128 3.95904 13.4624C3.97061 13.4475 3.98025 13.4382 3.98604 13.4307L4.59268 12.696L4.52999 13.9109H4.33228L4.367 13.3356L4.36796 13.3366Z" fill="white"/>
<path id="Vector_10" d="M5.24656 13.9118L5.61112 12.7463H6.34216L6.29201 12.9076H5.77314L5.68249 13.2004H6.19943L6.14831 13.3654H5.62944L5.51178 13.7421H6.02872L5.97664 13.9118H5.24463H5.24656Z" fill="white"/>
<path id="Vector_11" d="M6.69336 13.9118L7.05792 12.7463H7.34532C7.53243 12.7463 7.6607 12.7547 7.73206 12.7715C7.80247 12.7874 7.86034 12.8163 7.90566 12.8554C7.96546 12.9058 8.00211 12.972 8.01658 13.0531C8.03008 13.1333 8.0214 13.2256 7.98957 13.329C7.95678 13.4325 7.90856 13.5239 7.84394 13.6041C7.78029 13.6843 7.70217 13.7505 7.61054 13.8017C7.54111 13.8418 7.46588 13.8698 7.38872 13.8866C7.3106 13.9034 7.19391 13.9108 7.03959 13.9108H6.69432L6.69336 13.9118ZM6.96051 13.7402H7.1399C7.23827 13.7402 7.3135 13.7346 7.36654 13.7234C7.42055 13.7113 7.46877 13.6917 7.5141 13.6638C7.57486 13.6255 7.62694 13.5798 7.66938 13.523C7.71181 13.467 7.7446 13.4018 7.76775 13.3281C7.7909 13.2545 7.79861 13.1892 7.7909 13.1333C7.78414 13.0764 7.76196 13.0298 7.72435 12.9925C7.69638 12.9645 7.6578 12.9449 7.60958 12.9337C7.56136 12.9216 7.48227 12.916 7.37233 12.916H7.21802L6.96051 13.7402Z" fill="white"/>
<path id="Vector_12" d="M8.52588 13.9118L8.8914 12.7463H9.10358L8.73999 13.9118H8.52684H8.52588Z" fill="white"/>
<path id="Vector_13" d="M10.3834 13.9117L10.3284 13.6115H9.80856L9.56359 13.9117H9.33984L10.3535 12.6997L10.6091 13.9117H10.3843H10.3834ZM9.93683 13.454H10.3024L10.2512 13.1883C10.2483 13.1715 10.2474 13.1519 10.2464 13.1295C10.2445 13.1081 10.2435 13.0829 10.2435 13.0559C10.2291 13.081 10.2136 13.1053 10.1982 13.1277C10.1837 13.1491 10.1683 13.1687 10.1548 13.1883L9.93683 13.454Z" fill="white"/>
<path id="Vector_14" d="M11.8406 12.9076L11.5262 13.9118H11.3131L11.6275 12.9076H11.2793L11.3294 12.7463H12.237L12.1878 12.9076H11.8406Z" fill="white"/>
<path id="Vector_15" d="M12.5068 13.9118L12.8704 12.7463H13.6024L13.5523 12.9076H13.0334L12.9418 13.2004H13.4597L13.4076 13.3654H12.8887L12.7711 13.7421H13.289L13.2359 13.9118H12.5049H12.5068Z" fill="white"/>
<path id="Vector_16" d="M15.3421 13.3889L15.1781 13.911H14.9775L15.3411 12.7456H15.6642C15.7607 12.7456 15.8291 12.7512 15.8716 12.7596C15.914 12.7689 15.9487 12.7848 15.9748 12.8053C16.0076 12.8323 16.0288 12.8687 16.0375 12.9153C16.0461 12.96 16.0423 13.0123 16.0249 13.0663C16.0076 13.1223 15.9796 13.1726 15.942 13.2192C15.9044 13.2668 15.861 13.3022 15.8118 13.3292C15.7722 13.3507 15.7269 13.3665 15.6806 13.3749C15.6314 13.3833 15.561 13.3889 15.4646 13.3889H15.3421ZM15.4038 13.2332H15.4588C15.5774 13.2332 15.6594 13.222 15.7057 13.1987C15.753 13.1745 15.7838 13.1353 15.8021 13.0775C15.8214 13.0151 15.8147 12.9712 15.78 12.9461C15.7462 12.92 15.6729 12.9078 15.5601 12.9078H15.5041L15.4029 13.2332H15.4038Z" fill="white"/>
<path id="Vector_17" d="M17.0811 13.9117L17.0271 13.6115H16.5073L16.2613 13.9117H16.0376L17.0503 12.6997L17.3068 13.9117H17.0802H17.0811ZM16.6356 13.454H17.0011L16.95 13.1883C16.9471 13.1715 16.9451 13.1519 16.9432 13.1295C16.9413 13.1081 16.9403 13.0829 16.9413 13.0559C16.9258 13.081 16.9114 13.1053 16.896 13.1277C16.8805 13.1491 16.867 13.1687 16.8526 13.1883L16.6346 13.454H16.6356Z" fill="white"/>
<path id="Vector_18" d="M17.9746 13.912L18.1415 13.3787L17.8975 12.7465H18.1212L18.2726 13.1418C18.2755 13.1521 18.2803 13.1661 18.2842 13.1819C18.289 13.1987 18.2938 13.2164 18.2977 13.2351C18.3112 13.2164 18.3257 13.1987 18.3411 13.1819C18.3546 13.1661 18.37 13.1502 18.3835 13.1372L18.7876 12.7456H18.9998L18.3517 13.3777L18.1849 13.911H17.9737L17.9746 13.912Z" fill="white"/>
<path id="Vector_19" d="M20.3528 13.3366C20.3528 13.3282 20.3577 13.3021 20.3644 13.262C20.3702 13.2275 20.375 13.2004 20.3779 13.1771C20.3644 13.2042 20.349 13.2312 20.3307 13.2573C20.3123 13.2844 20.2911 13.3105 20.267 13.3384L19.7308 13.9584L19.5851 13.3254C19.5803 13.2993 19.5755 13.2741 19.5726 13.2489C19.5687 13.2247 19.5678 13.2004 19.5678 13.1762C19.5591 13.2014 19.5495 13.2265 19.5369 13.2536C19.5244 13.2797 19.5089 13.3077 19.4926 13.3375L19.1733 13.9109H18.9775L19.6662 12.696L19.8243 13.4317C19.8262 13.4428 19.8291 13.4634 19.834 13.4895C19.8369 13.5165 19.8417 13.5501 19.8455 13.5892C19.8696 13.5557 19.9024 13.5128 19.9449 13.4624C19.9564 13.4475 19.9651 13.4382 19.9709 13.4307L20.5795 12.696L20.5168 13.9109H20.3191L20.3538 13.3356L20.3528 13.3366Z" fill="white"/>
<path id="Vector_20" d="M21.1582 13.9118L21.5218 12.7463H22.2538L22.2037 12.9076H21.6858L21.5941 13.2004H22.113L22.0609 13.3654H21.543L21.4263 13.7421H21.9433L21.8912 13.9118H21.1592H21.1582Z" fill="white"/>
<path id="Vector_21" d="M22.6045 13.9117L22.9826 12.6997L23.593 13.412C23.6094 13.4325 23.6258 13.453 23.6422 13.4773C23.6586 13.4997 23.675 13.5248 23.6924 13.5537L23.9441 12.7463H24.1408L23.7638 13.9574L23.1407 13.2321C23.1243 13.2125 23.1079 13.192 23.0935 13.1705C23.078 13.1491 23.0665 13.1267 23.0539 13.1015L22.8003 13.9117H22.6045Z" fill="white"/>
<path id="Vector_22" d="M25.2869 12.9076L24.9734 13.9118H24.7593L25.0728 12.9076H24.7246L24.7738 12.7463H25.6833L25.6322 12.9076H25.2859H25.2869Z" fill="white"/>
<path id="Vector_23" d="M26.9766 13.6789L27.1695 13.609C27.1695 13.6603 27.1868 13.7003 27.2215 13.7274C27.2553 13.7554 27.3064 13.7684 27.3729 13.7684C27.4356 13.7684 27.4916 13.7535 27.5379 13.7209C27.5861 13.6892 27.617 13.6472 27.6333 13.595C27.6546 13.5269 27.6102 13.4654 27.4993 13.4123C27.4839 13.4048 27.4723 13.3992 27.4636 13.3945C27.3382 13.3321 27.2601 13.2752 27.2273 13.2249C27.1965 13.1745 27.1907 13.112 27.2138 13.0384C27.2427 12.9442 27.3035 12.8668 27.3942 12.809C27.4858 12.7494 27.5899 12.7205 27.7076 12.7205C27.8041 12.7205 27.8802 12.7372 27.9343 12.7699C27.9892 12.8034 28.0201 12.851 28.0259 12.9125L27.8359 12.9899C27.8204 12.9526 27.8002 12.9265 27.7742 12.9097C27.7481 12.892 27.7144 12.8846 27.6748 12.8846C27.617 12.8846 27.5687 12.8976 27.5263 12.9237C27.4848 12.9517 27.4569 12.9862 27.4424 13.0309C27.4212 13.1009 27.4742 13.167 27.6035 13.2267C27.6131 13.2314 27.6218 13.2342 27.6266 13.2379C27.7394 13.291 27.8127 13.3433 27.8446 13.3936C27.8774 13.444 27.8822 13.5074 27.8581 13.5829C27.8233 13.6929 27.7578 13.7805 27.6584 13.8458C27.56 13.9101 27.4443 13.9428 27.3122 13.9428C27.2003 13.9428 27.1154 13.9204 27.0595 13.8738C27.0016 13.829 26.9746 13.7637 26.9795 13.6789H26.9766Z" fill="white"/>
<path id="Vector_24" d="M28.5293 13.9118L28.8939 12.7463H29.6259L29.5757 12.9076H29.0568L28.9652 13.2004H29.4841L29.432 13.3654H28.9141L28.7964 13.7421H29.3153L29.2613 13.9118H28.5293Z" fill="white"/>
<path id="Vector_25" d="M30.4129 13.3906L30.2509 13.9118H30.0513L30.4149 12.7463H30.7129C30.7997 12.7463 30.8662 12.7519 30.9106 12.7613C30.954 12.7724 30.9916 12.7883 31.0176 12.8116C31.0485 12.8396 31.0688 12.8759 31.0774 12.9207C31.0852 12.9654 31.0813 13.0139 31.0639 13.0671C31.035 13.1603 30.9868 13.234 30.9193 13.2862C30.8527 13.3393 30.7669 13.371 30.6647 13.3822L30.9501 13.9118H30.709L30.4351 13.3906H30.41H30.4129ZM30.4727 13.2433H30.5113C30.6242 13.2433 30.7032 13.2321 30.7466 13.2088C30.791 13.1845 30.8228 13.1435 30.8411 13.0838C30.8614 13.0195 30.8556 12.9738 30.8238 12.9487C30.7929 12.9216 30.7225 12.9086 30.6155 12.9086H30.5759L30.4718 13.2433H30.4727Z" fill="white"/>
<path id="Vector_26" d="M31.8788 13.9574L31.6724 12.7463H31.8932L31.9926 13.3673C31.9993 13.4036 32.0022 13.4363 32.0041 13.468C32.0061 13.4987 32.0061 13.5276 32.0041 13.5537C32.0215 13.5258 32.0398 13.4941 32.061 13.4642C32.0832 13.4325 32.1064 13.4008 32.1334 13.3673L32.6214 12.7463H32.8422L31.8788 13.9574Z" fill="white"/>
<path id="Vector_27" d="M33.0478 13.9118L33.4114 12.7463H33.6255L33.26 13.9118H33.0469H33.0478Z" fill="white"/>
<path id="Vector_28" d="M35.2207 13.0299C35.1744 12.9842 35.1204 12.9497 35.0615 12.9264C35.0017 12.904 34.9342 12.8919 34.8609 12.8919C34.7172 12.8919 34.588 12.9329 34.4732 13.0141C34.3575 13.0952 34.2794 13.2024 34.2389 13.332C34.1993 13.4578 34.2109 13.5613 34.2726 13.6425C34.3353 13.7245 34.4318 13.7655 34.5648 13.7655C34.643 13.7655 34.7201 13.7543 34.7982 13.7292C34.8764 13.704 34.9545 13.6667 35.0345 13.6182L34.968 13.8327C34.8995 13.8699 34.8281 13.896 34.7558 13.9147C34.6815 13.9324 34.6063 13.9417 34.5272 13.9417C34.4269 13.9417 34.3392 13.9277 34.263 13.8979C34.1868 13.869 34.1251 13.8261 34.0788 13.7693C34.0325 13.7142 34.0045 13.648 33.9929 13.5725C33.9833 13.4961 33.99 13.4159 34.017 13.3311C34.045 13.2443 34.0865 13.1651 34.1443 13.0905C34.2012 13.015 34.2736 12.9497 34.3546 12.8919C34.4375 12.8341 34.5263 12.7912 34.6198 12.7623C34.7134 12.7325 34.8088 12.7185 34.9063 12.7185C34.9844 12.7185 35.0548 12.7278 35.1175 12.7474C35.1821 12.7679 35.24 12.7978 35.293 12.8378L35.2226 13.0299H35.2207Z" fill="white"/>
<path id="Vector_29" d="M35.644 13.9118L36.0076 12.7463H36.7396L36.6895 12.9076H36.1706L36.079 13.2004H36.5979L36.5448 13.3654H36.0279L35.9093 13.7421H36.4272L36.3741 13.9118H35.6431H35.644Z" fill="white"/>
</g>
</g>
</svg>
