<svg width="20" height="20" viewBox="0 0 20 20" fill="none" xmlns="http://www.w3.org/2000/svg">
<g id="fi_321238" clip-path="url(#clip0_3935_936)">
<path id="Vector" d="M0 12.2581V14.9032C0 16 0.870968 16.7742 1.93548 16.7742H18.0645C19.129 16.7742 20 16 20 14.9032V12.2581H0Z" fill="#359846"/>
<path id="Vector_2" d="M18.0645 3.22583H1.93548C0.870968 3.22583 0 4.00002 0 5.0968V7.74196H20V5.0968C20 4.00002 19.129 3.22583 18.0645 3.22583Z" fill="#EA8634"/>
<path id="Vector_3" d="M20 7.74194H0V12.2581H20V7.74194Z" fill="#FCFBF0"/>
<path id="Vector_4" d="M17.9998 16.7742C19.0643 16.7742 19.9998 16 19.9998 14.9032V12.2581H12.7095L17.9998 16.7742Z" fill="#21872F"/>
<path id="Vector_5" d="M18.0646 3.22583H1.93555L7.29039 7.74196H20.0001V5.0968C20.0001 4.00002 19.1291 3.22583 18.0646 3.22583Z" fill="#E27423"/>
<path id="Vector_6" d="M12.7422 12.2581H20.0002V7.74194H7.2583L12.7422 12.2581Z" fill="#F7F4E2"/>
<path id="Vector_7" d="M18.0646 3.22583H1.93555L16.871 7.74196H20.0001V5.0968C20.0001 4.00002 19.1291 3.22583 18.0646 3.22583Z" fill="#D86619"/>
<path id="Vector_8" d="M19.9998 8.64517V7.74194H16.7095L19.9998 8.64517Z" fill="#F2E9C2"/>
<path id="Vector_9" d="M20 14.871C20 16.0323 19.129 16.7742 18.0645 16.7742H1.93548C0.870968 16.7742 0 15.9355 0 14.8387" fill="#167A20"/>
<path id="Vector_10" d="M10 7.96777C8.871 7.96777 7.96777 8.871 7.96777 10C7.96777 11.1291 8.871 12.0323 10 12.0323C11.1291 12.0323 12.0323 11.1291 12.0323 10C12.0323 8.871 11.1291 7.96777 10 7.96777ZM11.6775 10.2258C11.6775 10.2581 11.7097 10.3226 11.742 10.3226C11.7097 10.4194 11.7097 10.5162 11.6775 10.6129C11.6452 10.5807 11.5807 10.6129 11.5484 10.6452C11.5162 10.6775 11.5484 10.742 11.5807 10.7742C11.5484 10.871 11.4839 10.9355 11.4516 11.0323C11.4194 11 11.3549 11 11.3226 11.0645C11.2904 11.0968 11.2904 11.1613 11.3226 11.1936C11.2904 11.2258 11.2581 11.2581 11.2258 11.2904L10.5162 10.4839L10.2258 10.2581L10.2581 10.2258L10.5484 10.4516L11.4839 10.9355L10.6452 10.2904L10.3226 10.1613C10.3226 10.1291 10.3226 10.1291 10.3549 10.0968L10.6774 10.2258L11.7097 10.4516L10.7097 10.1291L10.3549 10.0645C10.3549 10.0323 10.3549 10.0323 10.3549 10L10.7097 10.0323L11.7742 9.96777L10.7097 9.90326L10.3549 9.93551C10.3549 9.90326 10.3549 9.90326 10.3549 9.871L10.7097 9.80648L11.7097 9.4839L10.6774 9.70971L10.3549 9.83874C10.3549 9.80648 10.3549 9.80648 10.3226 9.77422L10.6452 9.64519L11.5484 9.06455L10.6129 9.54842L10.3226 9.77422L10.2904 9.74197L10.5807 9.51616L11.2904 8.70971C11.3226 8.74197 11.3549 8.77422 11.3871 8.80648C11.3549 8.83874 11.3549 8.90326 11.3871 8.93552C11.4194 8.96777 11.4839 8.96777 11.5162 8.96777C11.5807 9.03229 11.6129 9.12906 11.6452 9.22584C11.6129 9.2581 11.5807 9.29035 11.6129 9.35487C11.6452 9.38713 11.6775 9.41939 11.742 9.38713C11.7742 9.4839 11.8065 9.58068 11.8065 9.67745C11.7742 9.67745 11.742 9.74197 11.742 9.77422C11.742 9.80648 11.8065 9.871 11.8387 9.83874C11.8387 9.871 11.8387 9.93551 11.8387 9.96777C11.8387 10 11.8387 10.0645 11.8387 10.0968C11.7097 10.1291 11.6775 10.1613 11.6775 10.2258ZM8.871 8.64519C8.90326 8.67745 8.96777 8.67745 9.00003 8.64519C9.03229 8.61293 9.03229 8.54842 9.03229 8.51616C9.09681 8.45164 9.19358 8.41939 9.29035 8.38713C9.32261 8.41939 9.35487 8.45164 9.41939 8.41939C9.45164 8.38713 9.4839 8.35487 9.45164 8.29035C9.54842 8.2581 9.64519 8.22584 9.74197 8.22584C9.74197 8.2581 9.80648 8.29035 9.83874 8.29035C9.871 8.29035 9.93552 8.22584 9.90326 8.19358C9.93552 8.19358 10 8.19358 10.0323 8.19358C10.0645 8.19358 10.1291 8.19358 10.1613 8.19358C10.1613 8.22584 10.1936 8.29035 10.2258 8.29035C10.2581 8.29035 10.3226 8.2581 10.3226 8.22584C10.4194 8.2581 10.5162 8.2581 10.6129 8.29035C10.5807 8.32261 10.6129 8.38713 10.6452 8.41939C10.6775 8.45164 10.742 8.41939 10.7742 8.38713C10.871 8.41939 10.9355 8.4839 11.0323 8.51616C11 8.54842 11 8.61293 11.0645 8.64519C11.0968 8.67745 11.1613 8.67745 11.1936 8.64519C11.2258 8.67745 11.2581 8.70971 11.2904 8.74197L10.4839 9.45164L10.2581 9.74197L10.2258 9.70971L10.4516 9.41939L10.9355 8.4839L10.2904 9.35487L10.1613 9.67745C10.1291 9.67745 10.1291 9.67745 10.0968 9.64519L10.2258 9.32261L10.4516 8.29035L10.1291 9.29035L10.0645 9.64519C10.0323 9.64519 10.0323 9.64519 10 9.64519L10.0323 9.29035L10 8.22584L9.93551 9.29035L9.96777 9.64519C9.93551 9.64519 9.93552 9.64519 9.90326 9.64519L9.83874 9.29035L9.51616 8.29035L9.74197 9.32261L9.871 9.64519C9.83874 9.64519 9.83874 9.64519 9.80648 9.67745L9.67745 9.35487L9.09681 8.45164L9.58068 9.38713L9.80648 9.67745L9.77422 9.70971L9.54842 9.41939L8.74197 8.70971C8.77422 8.70971 8.80648 8.67745 8.871 8.64519ZM8.74197 11.2581C8.70971 11.2258 8.67745 11.1936 8.64519 11.1613C8.67745 11.1291 8.67745 11.0645 8.64519 11.0323C8.61293 11 8.54842 11 8.51616 11C8.45164 10.9355 8.41939 10.8387 8.38713 10.742C8.41939 10.7097 8.45164 10.6775 8.41939 10.6129C8.38713 10.5807 8.35487 10.5484 8.29035 10.5807C8.2581 10.4839 8.22584 10.3871 8.22584 10.2904C8.2581 10.2904 8.29035 10.2258 8.29035 10.1936C8.29035 10.1613 8.22584 10.0968 8.19358 10.1291C8.19358 10.0968 8.19358 10.0323 8.19358 10C8.19358 9.96777 8.19358 9.90326 8.19358 9.871C8.22584 9.871 8.29035 9.83874 8.29035 9.80648C8.29035 9.77422 8.2581 9.70971 8.22584 9.70971C8.2581 9.61293 8.2581 9.51616 8.29035 9.41939C8.32261 9.45164 8.38713 9.41939 8.41939 9.38713C8.45164 9.35487 8.41939 9.29035 8.38713 9.2581C8.41939 9.16132 8.4839 9.09681 8.51616 9.00003C8.54842 9.03229 8.61293 9.03229 8.64519 8.96777C8.67745 8.90326 8.67745 8.871 8.64519 8.83874C8.67745 8.80648 8.70971 8.77422 8.74197 8.74197L9.45164 9.54842L9.74197 9.77422L9.70971 9.80648L9.41939 9.58068L8.4839 9.09681L9.38713 9.67745L9.70971 9.80648C9.70971 9.83874 9.70971 9.83874 9.67745 9.871L9.35487 9.74197L8.32261 9.51616L9.32261 9.83874L9.67745 9.90326C9.67745 9.93552 9.67745 9.93551 9.67745 9.96777L9.32261 9.93551L8.22584 10L9.29035 10.0645L9.64519 10.0323C9.64519 10.0645 9.64519 10.0645 9.64519 10.0968L9.29035 10.1613L8.29035 10.4839L9.32261 10.2581L9.64519 10.1291C9.64519 10.1613 9.64519 10.1613 9.67745 10.1936L9.35487 10.3226L8.45164 10.9033L9.38713 10.4194L9.67745 10.1936L9.70971 10.2258L9.41939 10.4516L8.74197 11.2581ZM9.871 11.7742C9.871 11.742 9.83874 11.6775 9.80648 11.6775C9.77422 11.6775 9.70971 11.7097 9.70971 11.742C9.61293 11.7097 9.51616 11.7097 9.41939 11.6775C9.45164 11.6452 9.41939 11.5807 9.38713 11.5484C9.35487 11.5162 9.29035 11.5484 9.2581 11.5807C9.16132 11.5484 9.09681 11.4839 9.00003 11.4516C9.03229 11.4194 9.03229 11.3549 8.96777 11.3226C8.93551 11.2904 8.871 11.2904 8.83874 11.3226C8.80648 11.2904 8.77422 11.2581 8.74197 11.2258L9.54842 10.5162L9.77422 10.2258L9.80648 10.2581L9.58068 10.5484L9.09681 11.4839L9.67745 10.5807L9.80648 10.2581C9.83874 10.2581 9.83874 10.2581 9.871 10.2904L9.74197 10.6129L9.51616 11.6452L9.83874 10.6452L9.90326 10.2904C9.93552 10.2904 9.93551 10.2904 9.96777 10.2904L9.93551 10.6452L10 11.7097L10.0645 10.6452L10.0323 10.2904C10.0645 10.2904 10.0645 10.2904 10.0968 10.2904L10.1613 10.6452L10.4839 11.6452L10.2581 10.6129L10.1291 10.2904C10.1613 10.2904 10.1613 10.2904 10.1936 10.2581L10.3226 10.5807L10.9033 11.4839L10.4194 10.5484L10.1936 10.2581L10.2258 10.2258L10.4516 10.5162L11.2581 11.2258C11.2258 11.2581 11.1936 11.2904 11.1613 11.3226C11.1291 11.2904 11.0645 11.2904 11.0323 11.3226C11 11.3549 11 11.4194 11 11.4516C10.9355 11.5162 10.8387 11.5484 10.742 11.5807C10.7097 11.5484 10.6775 11.5162 10.6129 11.5484C10.5484 11.5807 10.5484 11.6129 10.5807 11.6775C10.4839 11.7097 10.3871 11.742 10.2904 11.742C10.2904 11.7097 10.2258 11.6775 10.1936 11.6775C10.1613 11.6775 10.0968 11.742 10.1291 11.7742C10.0968 11.7742 10.0323 11.7742 10 11.7742C9.96777 11.7742 9.90326 11.7742 9.871 11.7742Z" fill="#7D7DBC"/>
<g id="Group">
<path id="Vector_11" d="M10.4517 10.3871L10.5484 10.4839V10.4516L10.4517 10.3871Z" fill="#6060B2"/>
<path id="Vector_12" d="M10 7.96777C9.38714 7.96777 8.83876 8.2581 8.45166 8.67745L8.64521 8.83874C8.67747 8.80648 8.70972 8.77422 8.74198 8.74197C8.77424 8.70971 8.8065 8.67745 8.83876 8.64519C8.87101 8.67745 8.93553 8.67745 8.96779 8.64519C9.00005 8.61293 9.00005 8.54842 9.00005 8.51616C9.0323 8.4839 9.09682 8.4839 9.12908 8.45164L9.61295 9.38713L9.83876 9.67745L9.8065 9.70971L9.58069 9.41939L8.77424 8.70971L9.45166 9.4839L9.54843 9.54842L9.74198 9.70971L10.2904 10.1613L10.3226 10.1291L10.613 10.3549L11.5484 10.8387C11.5162 10.871 11.5162 10.9355 11.4839 10.9678C11.4517 10.9355 11.3871 10.9355 11.3549 11C11.3226 11.0323 11.3226 11.0968 11.3549 11.1291L11.5484 11.2904C11.8388 10.9355 12.0323 10.4839 12.0323 9.96777C12.0323 8.871 11.1291 7.96777 10 7.96777ZM9.83876 9.67745L9.70972 9.35487L9.12908 8.4839C9.16134 8.45164 9.1936 8.41939 9.25811 8.41939C9.29037 8.45164 9.32263 8.4839 9.38714 8.45164C9.4194 8.41939 9.45166 8.38713 9.4194 8.32261C9.45166 8.32261 9.51618 8.29035 9.54843 8.29035L9.77424 9.32261L9.90327 9.64519C9.87101 9.67745 9.87101 9.67745 9.83876 9.67745ZM10.0323 9.64519L10.0646 9.29035L10 8.22584L9.93553 9.29035L9.96779 9.64519C9.93553 9.64519 9.93553 9.64519 9.90327 9.64519L9.83876 9.29035L9.51618 8.29035C9.54843 8.29035 9.61295 8.2581 9.64521 8.2581C9.64521 8.29035 9.70972 8.32261 9.74198 8.32261C9.77424 8.32261 9.83876 8.2581 9.8065 8.22584C9.83876 8.22584 9.90327 8.22584 9.93553 8.22584C9.96779 8.22584 10.0323 8.22584 10.0646 8.22584C10.0646 8.2581 10.0968 8.32261 10.1291 8.32261C10.1613 8.32261 10.2259 8.29035 10.2259 8.2581C10.2581 8.2581 10.3226 8.29035 10.3549 8.29035L10.0323 9.29035L9.96779 9.64519C10.0646 9.64519 10.0323 9.64519 10.0323 9.64519ZM10.0968 9.67745L10.2259 9.35487L10.4517 8.32261C10.4839 8.32261 10.5484 8.35487 10.5807 8.35487C10.5484 8.38713 10.5807 8.45164 10.613 8.4839C10.6452 8.51616 10.7097 8.4839 10.742 8.45164C10.7742 8.4839 10.8388 8.4839 10.871 8.51616L10.2904 9.35487L10.1613 9.67745C10.1291 9.67745 10.1291 9.67745 10.0968 9.67745ZM11.5484 10.6452C11.5162 10.6775 11.5484 10.742 11.5807 10.7742C11.5484 10.8065 11.5484 10.871 11.5162 10.9033L10.6452 10.2904L10.3226 10.1613C10.3226 10.1291 10.3226 10.1291 10.3549 10.0968L10.6775 10.2258L11.7097 10.4516C11.7097 10.4839 11.6775 10.5484 11.6775 10.5807C11.613 10.5807 11.5807 10.6129 11.5484 10.6452ZM11.7742 9.871C11.7742 9.90326 11.7742 9.96777 11.7742 10C11.7742 10.0323 11.7742 10.0968 11.7742 10.1291C11.742 10.1291 11.6775 10.1613 11.6775 10.1936C11.6775 10.2258 11.7097 10.2904 11.742 10.2904C11.742 10.3226 11.7097 10.3871 11.7097 10.4194L10.7097 10.0968L10.3549 10.0323C10.3549 10 10.3549 10 10.3549 9.96777L10.7097 10L11.7742 9.93551L10.7097 9.871L10.3549 9.90326C10.3549 9.871 10.3549 9.871 10.3549 9.83874L10.7097 9.77422L11.7097 9.45164C11.7097 9.4839 11.742 9.54842 11.742 9.58068C11.7097 9.58068 11.6775 9.64519 11.6775 9.67745C11.6775 9.83874 11.7097 9.871 11.7742 9.871ZM11.5484 9.35487C11.5807 9.38713 11.613 9.41939 11.6775 9.38713C11.6775 9.41939 11.7097 9.4839 11.7097 9.51616L10.6775 9.74197L10.3549 9.871C10.3549 9.83874 10.3549 9.83874 10.3226 9.80648L10.6452 9.67745L11.5162 9.09681C11.5484 9.12906 11.5807 9.16132 11.5807 9.22584C11.5484 9.2581 11.5162 9.32261 11.5484 9.35487ZM11.5162 9.12906L10.5807 9.61293L10.2904 9.83874L10.2581 9.80648L10.5484 9.58068L11.2581 8.77422L10.4517 9.4839L10.2259 9.77422L10.1936 9.74197L10.4194 9.45164L10.9033 8.51616C10.9355 8.54842 11 8.54842 11.0323 8.58068C11 8.61293 11 8.67745 11.0646 8.70971C11.0968 8.74197 11.1613 8.74197 11.1936 8.70971C11.2259 8.74197 11.2581 8.77422 11.2904 8.80648C11.3226 8.83874 11.3549 8.871 11.3871 8.90326C11.3549 8.93552 11.3549 9.00003 11.3871 9.03229C11.4194 9.06455 11.4839 9.06455 11.5162 9.06455C11.4839 9.03229 11.5162 9.06455 11.5162 9.12906Z" fill="#6060B2"/>
</g>
</g>
<defs>
<clipPath id="clip0_3935_936">
<rect width="20" height="20" fill="white"/>
</clipPath>
</defs>
</svg>
