<svg width="20" height="24" viewBox="0 0 20 24" fill="none" xmlns="http://www.w3.org/2000/svg">
<g id="Group">
<g id="Group_2">
<path id="Vector" d="M14.6172 0C14.6731 0 14.729 0 14.788 0C14.925 1.69253 14.279 2.95719 13.4938 3.87301C12.7234 4.78251 11.6685 5.6646 9.96226 5.53076C9.84844 3.86247 10.4955 2.69161 11.2796 1.77789C12.0068 0.92636 13.3399 0.168621 14.6172 0Z" fill="white"/>
<path id="Vector_2" d="M19.7831 17.6166C19.7831 17.6335 19.7831 17.6482 19.7831 17.6641C19.3036 19.1163 18.6196 20.3609 17.785 21.516C17.023 22.5646 16.0893 23.9757 14.422 23.9757C12.9814 23.9757 12.0245 23.0494 10.548 23.0241C8.98613 22.9988 8.12722 23.7987 6.69921 24C6.53586 24 6.37251 24 6.21232 24C5.16371 23.8482 4.31744 23.0178 3.70092 22.2695C1.88298 20.0585 0.478159 17.2025 0.216797 13.5476C0.216797 13.1893 0.216797 12.832 0.216797 12.4737C0.327454 9.85797 1.59843 7.73124 3.2878 6.70054C4.17938 6.15253 5.40505 5.68566 6.76982 5.89432C7.35472 5.98496 7.95227 6.1852 8.47605 6.38333C8.97243 6.57408 9.59316 6.91237 10.1812 6.89446C10.5796 6.88286 10.9759 6.67525 11.3774 6.52876C12.5535 6.10405 13.7065 5.61715 15.2261 5.84585C17.0525 6.12196 18.3488 6.93345 19.1497 8.18546C17.6048 9.16873 16.3833 10.6505 16.592 13.1808C16.7775 15.4794 18.1138 16.8241 19.7831 17.6166Z" fill="white"/>
</g>
</g>
</svg>
