<svg width="16" height="16" viewBox="0 0 16 16" fill="none" xmlns="http://www.w3.org/2000/svg">
<g id="fi_4785510">
<g id="Group">
<g id="Group_2">
<g id="ngicon">
<path id="Vector" fill-rule="evenodd" clip-rule="evenodd" d="M8.00008 1.16699C4.22875 1.16699 1.16675 4.22899 1.16675 8.00033C1.16675 11.7717 4.22875 14.8337 8.00008 14.8337C11.7714 14.8337 14.8334 11.7717 14.8334 8.00033C14.8334 4.22899 11.7714 1.16699 8.00008 1.16699ZM8.00008 2.16699C11.2197 2.16699 13.8334 4.78066 13.8334 8.00033C13.8334 11.22 11.2197 13.8337 8.00008 13.8337C4.78041 13.8337 2.16675 11.22 2.16675 8.00033C2.16675 4.78066 4.78041 2.16699 8.00008 2.16699ZM7.50008 7.50033H5.33342C5.05741 7.50033 4.83341 7.72433 4.83341 8.00033C4.83341 8.27633 5.05741 8.50033 5.33342 8.50033H7.50008V10.667C7.50008 10.943 7.72408 11.167 8.00008 11.167C8.27608 11.167 8.50008 10.943 8.50008 10.667V8.50033H10.6667C10.9427 8.50033 11.1667 8.27633 11.1667 8.00033C11.1667 7.72433 10.9427 7.50033 10.6667 7.50033H8.50008V5.33366C8.50008 5.05766 8.27608 4.83366 8.00008 4.83366C7.72408 4.83366 7.50008 5.05766 7.50008 5.33366V7.50033Z" fill="#D5D9DE"/>
</g>
</g>
</g>
</g>
</svg>
