<svg width="12" height="13" viewBox="0 0 12 13" fill="none" xmlns="http://www.w3.org/2000/svg">
<g id="fi_10444324">
<path id="Vector" d="M5.28752 8.61864C5.64753 9.12113 6.24004 9.44738 6.90752 9.44738C8.01003 9.44738 8.90628 8.55112 8.90628 7.44489C8.90628 6.34239 8.01003 5.44238 6.90752 5.44238C6.14629 5.44238 5.48628 5.86613 5.14502 6.49238V6.49613C5.62878 6.61989 5.98129 7.05863 5.98129 7.57989C5.98129 8.04488 5.69628 8.44989 5.28752 8.61864ZM6.53252 6.58988C6.53252 6.38364 6.69753 6.21488 6.90752 6.21488C7.11377 6.21488 7.28252 6.38364 7.28252 6.58988V7.06989H7.69504C7.90128 7.06989 8.07004 7.23862 8.07004 7.44489C8.07004 7.65489 7.90128 7.81989 7.69504 7.81989H6.90752C6.69753 7.81989 6.53252 7.65489 6.53252 7.44489V6.58988Z" fill="#22C55E"/>
<path id="Vector_2" d="M3.70117 4.58H3.91868C4.45493 4.58 4.90118 4.95125 5.01367 5.45376C5.50492 4.98125 6.17616 4.6925 6.90742 4.6925C8.42243 4.6925 9.65617 5.92999 9.65617 7.44501C9.65617 8.96375 8.42243 10.1975 6.90742 10.1975C6.19118 10.1975 5.53493 9.92 5.04368 9.46624C5.03617 10.0663 4.55991 10.5537 3.96368 10.5762C4.72867 11.3037 5.77118 11.75 6.90742 11.75C9.27742 11.75 11.2087 9.81874 11.2087 7.44501C11.2087 5.52874 9.94868 3.90125 8.21243 3.34626V2H8.50492C8.71492 2 8.87992 1.83125 8.87992 1.625C8.87992 1.41875 8.71492 1.25 8.50492 1.25H5.30618C5.09991 1.25 4.93118 1.41875 4.93118 1.625C4.93118 1.83125 5.09991 2 5.30618 2H5.60242V3.34626C4.85993 3.58249 4.20368 4.01375 3.70117 4.58Z" fill="#22C55E"/>
<path id="Vector_3" d="M4.85687 7.20312H2.10278C1.89569 7.20312 1.72778 7.37103 1.72778 7.57812C1.72778 7.78522 1.89569 7.95312 2.10278 7.95312H4.85687C5.06396 7.95312 5.23187 7.78522 5.23187 7.57812C5.23187 7.37103 5.06396 7.20312 4.85687 7.20312Z" fill="#22C55E"/>
<path id="Vector_4" d="M1.16528 6.07812H3.91937C4.12646 6.07812 4.29437 5.91022 4.29437 5.70312C4.29437 5.49603 4.12646 5.32812 3.91937 5.32812H1.16528C0.958191 5.32812 0.790283 5.49603 0.790283 5.70312C0.790283 5.91022 0.958191 6.07812 1.16528 6.07812Z" fill="#22C55E"/>
<path id="Vector_5" d="M1.16528 9.82812H3.91937C4.12646 9.82812 4.29437 9.66022 4.29437 9.45312C4.29437 9.24603 4.12646 9.07812 3.91937 9.07812H1.16528C0.958191 9.07812 0.790283 9.24603 0.790283 9.45312C0.790283 9.66022 0.958191 9.82812 1.16528 9.82812Z" fill="#22C55E"/>
</g>
</svg>
