<svg width="20" height="20" viewBox="0 0 20 20" fill="none" xmlns="http://www.w3.org/2000/svg">
<g id="fi_10023823" clip-path="url(#clip0_2832_4520)">
<g id="Icon">
<g id="36">
<path id="Background" d="M14.1406 0H5.85938C2.62333 0 0 2.62333 0 5.85938V14.1406C0 17.3767 2.62333 20 5.85938 20H14.1406C17.3767 20 20 17.3767 20 14.1406V5.85938C20 2.62333 17.3767 0 14.1406 0Z" fill="#22C55E"/>
<path id="Vector" d="M13.489 6.45317L8.46709 11.475L6.51045 9.51841C6.1292 9.13716 5.51084 9.13716 5.1292 9.51841C4.74795 9.89966 4.74795 10.518 5.1292 10.8997L7.77646 13.5469C8.15772 13.9282 8.77607 13.9282 9.15771 13.5469L14.8702 7.83442C15.2515 7.45317 15.2515 6.83481 14.8702 6.45317C14.489 6.07192 13.8706 6.07192 13.489 6.45317Z" fill="white"/>
</g>
</g>
</g>
<defs>
<clipPath id="clip0_2832_4520">
<rect width="20" height="20" fill="white"/>
</clipPath>
</defs>
</svg>
