<svg width="18" height="16" viewBox="0 0 18 16" fill="none" xmlns="http://www.w3.org/2000/svg">
<g id="layer1">
<path id="path76735" d="M3.30848 3.76929C3.22625 3.76937 3.14484 3.78568 3.06892 3.81727C2.993 3.84887 2.92406 3.89514 2.86605 3.95343C2.80805 4.01172 2.76212 4.08088 2.7309 4.15696C2.69967 4.23303 2.68376 4.31452 2.68409 4.39675C2.68425 4.5623 2.75008 4.72102 2.86714 4.83808C2.98421 4.95513 3.14294 5.02097 3.30848 5.02113H14.1599C14.8371 5.02113 15.301 5.47799 15.301 5.98692V7.07883C15.3006 7.16133 15.3166 7.24306 15.3481 7.31933C15.3795 7.39561 15.4257 7.46491 15.484 7.52324C15.5424 7.58157 15.6117 7.62778 15.6879 7.6592C15.7642 7.69061 15.8459 7.70662 15.9284 7.7063C16.0107 7.70621 16.0921 7.68991 16.168 7.65831C16.2439 7.62671 16.3128 7.58043 16.3708 7.52214C16.4289 7.46385 16.4748 7.39469 16.506 7.31861C16.5372 7.24254 16.5531 7.16107 16.5528 7.07883V5.98692C16.5528 4.73278 15.441 3.76929 14.1599 3.76929H3.30848Z" fill="white"/>
<path id="path76738" d="M14.1754 6.45447C13.2613 6.45447 12.5083 7.21059 12.5083 8.12462V9.37647C12.5083 10.2905 13.2613 11.0466 14.1754 11.0466H15.9132C16.8272 11.0466 17.5834 10.2905 17.5834 9.37647V8.12462C17.5834 7.21059 16.8272 6.45447 15.9132 6.45447H14.1754ZM14.1754 7.70631H15.9132C16.1517 7.70631 16.3315 7.88613 16.3315 8.12462V9.37647C16.3315 9.61494 16.1517 9.79477 15.9132 9.79477H14.1754C13.9369 9.79477 13.7571 9.61494 13.7571 9.37647V8.12462C13.7571 7.88613 13.9369 7.70631 14.1754 7.70631Z" fill="white"/>
<path id="path76723" d="M8.81897 15.4113C8.98452 15.4111 9.14324 15.3453 9.2603 15.2282C9.37736 15.1111 9.44319 14.9524 9.44336 14.7869L9.44336 11.5081C9.4432 11.3425 9.37736 11.1838 9.2603 11.0668C9.14324 10.9497 8.98452 10.8839 8.81898 10.8837C8.65343 10.8839 8.49471 10.9497 8.37765 11.0668C8.26059 11.1838 8.19476 11.3425 8.19459 11.5081L8.19459 14.7869C8.19475 14.9524 8.26059 15.1111 8.37765 15.2282C8.49471 15.3453 8.65343 15.4111 8.81897 15.4113Z" fill="white"/>
<path id="path76726" d="M8.81875 15.4113C8.90109 15.4112 8.98261 15.3948 9.05862 15.3632C9.13463 15.3315 9.20363 15.2851 9.26166 15.2267L10.9103 13.5689C11.0271 13.4517 11.0928 13.293 11.0928 13.1275C11.0928 12.962 11.0271 12.8033 10.9103 12.6861C10.8522 12.6278 10.7832 12.5815 10.7072 12.5499C10.6312 12.5183 10.5497 12.5021 10.4674 12.5021C10.3851 12.5021 10.3036 12.5183 10.2276 12.5499C10.1515 12.5815 10.0825 12.6278 10.0245 12.6861L8.37583 14.344C8.31771 14.4022 8.27168 14.4714 8.24037 14.5475C8.20905 14.6237 8.19308 14.7052 8.19338 14.7875C8.19367 14.8698 8.21022 14.9513 8.24207 15.0272C8.27392 15.1031 8.32044 15.1719 8.37898 15.2298C8.49593 15.3459 8.65394 15.4111 8.81875 15.4113Z" fill="white"/>
<path id="path76729" d="M8.8158 15.4112C8.89793 15.4116 8.97933 15.3957 9.05533 15.3646C9.13133 15.3335 9.20043 15.2876 9.25872 15.2298C9.31725 15.1719 9.36378 15.1031 9.39564 15.0272C9.42749 14.9513 9.44404 14.8698 9.44433 14.7875C9.44462 14.7052 9.42865 14.6237 9.39734 14.5475C9.36603 14.4714 9.32 14.4022 9.26188 14.344L7.61324 12.6861C7.55517 12.6278 7.48615 12.5815 7.41014 12.5499C7.33414 12.5183 7.25264 12.5021 7.17033 12.5021C7.08802 12.5021 7.00652 12.5183 6.93051 12.5499C6.85451 12.5815 6.78549 12.6278 6.72742 12.6861C6.61013 12.8028 6.54393 12.9613 6.54334 13.1268C6.54275 13.2923 6.60782 13.4513 6.72427 13.5689L8.37596 15.2267C8.49241 15.3439 8.65056 15.4103 8.8158 15.4112Z" fill="white"/>
<path id="path76732" d="M1.53992 2.1792C1.37438 2.17936 1.21566 2.24519 1.0986 2.36225C0.981535 2.47931 0.915692 2.63803 0.915527 2.80358V11.5573C0.915527 12.8114 2.02732 13.7718 3.30851 13.7718H5.08323C5.24878 13.7717 5.4075 13.7058 5.52456 13.5888C5.64162 13.4717 5.70745 13.313 5.70762 13.1474C5.70745 12.9819 5.64162 12.8232 5.52456 12.7061C5.4075 12.5891 5.24878 12.5232 5.08323 12.5231H3.30851C2.6313 12.5231 2.16738 12.0662 2.16738 11.5573V2.80358C2.1673 2.72135 2.151 2.63994 2.1194 2.56403C2.0878 2.48811 2.04154 2.41917 1.98325 2.36117C1.92496 2.30317 1.85579 2.25723 1.77972 2.226C1.70364 2.19478 1.62216 2.17888 1.53992 2.1792ZM15.9285 9.79484C15.846 9.79451 15.7642 9.81052 15.688 9.84194C15.6117 9.87336 15.5424 9.91956 15.4841 9.97789C15.4257 10.0362 15.3795 10.1055 15.3481 10.1818C15.3167 10.2581 15.3007 10.3398 15.301 10.4223V11.5573C15.301 12.0662 14.8371 12.5231 14.1599 12.5231H12.582C12.4165 12.5232 12.2577 12.5891 12.1407 12.7061C12.0236 12.8232 11.9578 12.9819 11.9576 13.1474C11.9578 13.313 12.0236 13.4717 12.1407 13.5888C12.2577 13.7058 12.4165 13.7717 12.582 13.7718H14.1599C15.4411 13.7718 16.5528 12.8114 16.5528 11.5573V10.4223C16.5532 10.3401 16.5373 10.2586 16.506 10.1825C16.4748 10.1064 16.4289 10.0373 16.3709 9.97898C16.3129 9.92069 16.2439 9.87443 16.168 9.84283C16.0921 9.81123 16.0107 9.79492 15.9285 9.79484Z" fill="white"/>
<path id="path76741" d="M3.30851 0.588989C2.02821 0.588974 0.915527 1.54957 0.915527 2.80356C0.915527 4.05754 2.02821 5.0212 3.30851 5.0212C3.47406 5.02103 3.63277 4.9552 3.74983 4.83814C3.86689 4.72108 3.93272 4.56236 3.93289 4.39681C3.93321 4.31458 3.9173 4.23309 3.88608 4.15702C3.85485 4.08095 3.80893 4.01179 3.75092 3.9535C3.69292 3.89521 3.62398 3.84894 3.54806 3.81734C3.47215 3.78574 3.39075 3.76943 3.30851 3.76935C2.63626 3.76935 2.16738 3.30696 2.16738 2.80356C2.16738 2.30015 2.63626 1.83774 3.30851 1.83776H12.7604C13.1955 1.83776 13.5355 2.17771 13.5355 2.61286V4.39681C13.5357 4.56236 13.6015 4.72108 13.7186 4.83814C13.8356 4.9552 13.9943 5.02103 14.1599 5.0212C14.2421 5.02152 14.3236 5.00561 14.3997 4.97439C14.4757 4.94316 14.5449 4.89724 14.6032 4.83923C14.6615 4.78123 14.7078 4.71229 14.7394 4.63638C14.771 4.56046 14.7873 4.47904 14.7873 4.39681V2.61286C14.7873 1.50216 13.8711 0.588989 12.7604 0.588989H3.30851Z" fill="white"/>
</g>
</svg>
